<svg width="69" height="44" viewBox="0 0 69 44" fill="none" xmlns="http://www.w3.org/2000/svg">
<g clip-path="url(#clip0_8_2180)">
<path d="M53.3199 44C47.9376 44 43.0528 41.8124 40.7506 36.8437V44H36.1772V0H40.9684V14.9063L40.844 19.3124C42.9285 14.8437 47.5641 11.3437 53.3199 11.3437C62.2488 11.3437 69 18.8124 69 28.0937C69 37.4374 62.1555 44 53.3199 44ZM53.3199 39.984C59.6978 39.984 64.2711 35.375 64.2711 28.0937C64.2711 20.9689 59.791 16.072 53.3199 16.072C46.8797 16.072 40.9061 21.2187 40.9061 28.0937C40.9061 35.1563 46.9108 39.984 53.3199 39.984Z" fill="#23252B"/>
<mask id="mask0_8_2180" style="mask-type:luminance" maskUnits="userSpaceOnUse" x="24" y="0" width="7" height="44">
<path d="M30.9127 0.14502H24.3481V43.9999H30.9127V0.14502Z" fill="white"/>
</mask>
<g mask="url(#mask0_8_2180)">
<path d="M27.588 6.37917C25.6366 6.37917 24.356 5.00057 24.356 3.25435C24.356 1.56939 25.6061 0.160156 27.6185 0.160156C29.6307 0.160156 30.9114 1.56939 30.9114 3.25435C30.9114 5.00057 29.6307 6.37917 27.588 6.37917ZM29.9662 43.9997H25.2707V12.8127H29.9662V43.9997Z" fill="#23252B"/>
</g>
<mask id="mask1_8_2180" style="mask-type:luminance" maskUnits="userSpaceOnUse" x="0" y="0" width="21" height="44">
<path d="M20.0307 0H0V44H20.0307V0Z" fill="white"/>
</mask>
<g mask="url(#mask1_8_2180)">
<path d="M5.18297 43.9998H-0.449219V39.4071H5.18297C10.9968 39.4071 14.8425 35.17 14.8425 28.6366V0.012207H19.5662V28.9275C19.5662 38.275 13.6312 43.9998 5.18297 43.9998Z" fill="#23252B"/>
</g>
</g>
<defs>
<clipPath id="clip0_8_2180">
<rect width="69" height="44" fill="white"/>
</clipPath>
</defs>
</svg>
