<svg width="44" height="28" viewBox="0 0 44 28" fill="none" xmlns="http://www.w3.org/2000/svg">
<g clip-path="url(#clip0_16_327)">
<path d="M34.0011 28C30.5689 28 27.454 26.6079 25.9859 23.446V28H23.0696V0H26.1248V9.4858L26.0455 12.2897C27.3747 9.44602 30.3308 7.21875 34.0011 7.21875C39.6949 7.21875 44 11.9715 44 17.8778C44 23.8238 39.6354 28 34.0011 28ZM34.0011 25.4444C38.0682 25.4444 40.9845 22.5114 40.9845 17.8778C40.9845 13.3438 38.1276 10.2276 34.0011 10.2276C29.8943 10.2276 26.0851 13.5028 26.0851 17.8778C26.0851 22.3722 29.9142 25.4444 34.0011 25.4444Z" fill="white"/>
<mask id="mask0_16_327" style="mask-type:luminance" maskUnits="userSpaceOnUse" x="15" y="0" width="5" height="28">
<path d="M19.7125 0.0922852H15.5264V27.9999H19.7125V0.0922852Z" fill="white"/>
</mask>
<g mask="url(#mask0_16_327)">
<path d="M17.5926 4.0596C16.3482 4.0596 15.5316 3.18232 15.5316 2.07108C15.5316 0.998838 16.3288 0.102051 17.612 0.102051C18.8952 0.102051 19.7118 0.998838 19.7118 2.07108C19.7118 3.18232 18.8952 4.0596 17.5926 4.0596ZM19.1091 27.9999H16.1148V8.15364H19.1091V27.9999Z" fill="white"/>
</g>
<mask id="mask1_16_327" style="mask-type:luminance" maskUnits="userSpaceOnUse" x="0" y="0" width="13" height="28">
<path d="M12.7732 0H0V28H12.7732V0Z" fill="white"/>
</mask>
<g mask="url(#mask1_16_327)">
<path d="M3.30498 27.9999H-0.28656V25.0773H3.30498C7.01237 25.0773 9.46465 22.3809 9.46465 18.2233V0.0078125H12.4769V18.4085C12.4769 24.3568 8.69229 27.9999 3.30498 27.9999Z" fill="white"/>
</g>
</g>
<defs>
<clipPath id="clip0_16_327">
<rect width="44" height="28" fill="white"/>
</clipPath>
</defs>
</svg>
