<svg width="49" height="41" viewBox="0 0 49 41" fill="none" xmlns="http://www.w3.org/2000/svg">
<path fill-rule="evenodd" clip-rule="evenodd" d="M11.4186 1.20044C11.5956 1.02348 11.8356 0.924072 12.0858 0.924072H18.361C18.8821 0.924072 19.3046 1.34652 19.3046 1.86764V8.44319H11.1423L11.1423 1.86764C11.1423 1.61739 11.2417 1.37739 11.4186 1.20044Z" fill="#38424A"/>
<path fill-rule="evenodd" clip-rule="evenodd" d="M33.2675 1.20031C33.4444 1.02336 33.6844 0.92395 33.9347 0.92395H40.2098C40.7309 0.92395 41.1534 1.3464 41.1534 1.86751V8.44307H32.9911L32.9911 1.86752C32.9911 1.61727 33.0905 1.37727 33.2675 1.20031Z" fill="#38424A"/>
<path d="M5.68347 6.41463C5.68347 5.45867 6.45843 4.68372 7.41439 4.68372H46.8254C47.7813 4.68372 48.5563 5.45867 48.5563 6.41463V38.563C48.5563 39.519 47.7813 40.2939 46.8254 40.2939H7.41439C6.45843 40.2939 5.68347 39.519 5.68347 38.563V6.41463Z" fill="#97A7B4"/>
<path d="M6.62731 4.6839C6.37707 4.6839 6.13707 4.78331 5.96011 4.96026C5.78316 5.13722 5.68375 5.37722 5.68375 5.62746L5.6838 28.9263C5.6838 32.5741 3.68816 34.6103 0.70874 35.5312L0.70874 36.4748H38.1198C42.8098 36.4748 46.6119 32.6728 46.6119 27.9827V5.62746C46.6119 5.10635 46.1894 4.6839 45.6683 4.6839H6.62731Z" fill="#D8DEE9"/>
<path d="M12.1472 10.217C12.1472 9.64265 12.6128 9.17703 13.1872 9.17703H29.5651C30.1394 9.17703 30.6051 9.64266 30.6051 10.217V31.5734C30.6051 32.3796 29.7274 32.8792 29.0341 32.4676L21.3761 27.9207L13.7182 32.4676C13.0249 32.8792 12.1472 32.3796 12.1472 31.5734V10.217Z" fill="#4EEBC2"/>
<path d="M16.5135 18.6087L19.7605 21.8557L26.2392 15.3771" stroke="#38424A" stroke-width="2.6" stroke-linecap="round" stroke-linejoin="round"/>
</svg>
