<svg width="47" height="47" viewBox="0 0 47 47" fill="none" xmlns="http://www.w3.org/2000/svg">
<rect x="0.0300369" y="6.55669" width="32.9031" height="39.2459" rx="2.6" transform="rotate(-8.46131 0.0300369 6.55669)" fill="#97A7B4"/>
<rect x="5.84957" y="1.28716" width="32.9031" height="39.2459" rx="2.6" fill="#D8DEE9"/>
<path d="M16.7036 13.8088C15.6216 14.0491 14.6237 14.513 13.7611 15.1494C12.5569 16.038 11.616 17.2622 11.0768 18.6847C10.937 19.0536 10.8242 19.4359 10.7408 19.829C10.5521 20.7186 11.3074 21.4637 12.2168 21.4637H24.6065C25.5159 21.4637 26.2711 20.7183 26.0824 19.8287C25.4474 16.8345 23.1036 14.4718 20.1198 13.8088C21.8331 13.1289 23.0444 11.4563 23.0444 9.50096C23.0444 6.94224 20.9703 4.86821 18.4117 4.86821C15.8531 4.86821 13.7789 6.94224 13.7789 9.50096C13.7789 11.4563 14.9903 13.1289 16.7036 13.8088Z" fill="#4EEBC2"/>
<path d="M12.0164 27.0743H24.7917" stroke="#4EEBC2" stroke-width="2.6" stroke-linecap="round"/>
<path d="M12.0164 33.2824H18.4041" stroke="#4EEBC2" stroke-width="2.6" stroke-linecap="round"/>
<path d="M39.4753 43.932C43.0212 42.6427 45.1015 38.8465 44.1859 35.0718C43.8847 33.8305 43.2946 32.7356 42.5049 31.8421M34.3193 29.7478C30.7734 31.0372 28.693 34.8334 29.6087 38.6081C29.9882 40.1722 30.8266 41.5039 31.9447 42.4932" stroke="#38424A" stroke-width="2.91665" stroke-linecap="round" stroke-linejoin="round"/>
<path d="M39.3042 27.8141L44.4959 27.8791C45.2383 27.8884 45.5988 28.7906 45.0673 29.309L39.8105 34.4356C39.279 34.954 38.3861 34.571 38.3954 33.8286L38.4605 28.6369C38.4663 28.1767 38.844 27.8083 39.3042 27.8141Z" fill="#38424A"/>
<path d="M34.7774 46.0835L29.5857 46.0184C28.8433 46.0091 28.4828 45.1069 29.0143 44.5886L34.271 39.4619C34.8025 38.9436 35.6954 39.3266 35.6861 40.0689L35.6211 45.2606C35.6153 45.7208 35.2376 46.0892 34.7774 46.0835Z" fill="#38424A"/>
<path d="M41.9699 1.71489C42.5461 3.62021 43.2146 4.26642 45.0914 4.83641C43.2245 5.42562 42.538 6.10619 41.9699 7.95794C41.4182 6.06059 40.7192 5.38259 38.8484 4.83641C40.7057 4.2898 41.3977 3.61764 41.9699 1.71489Z" fill="#97A7B4" stroke="#97A7B4" stroke-width="2.08" stroke-linejoin="round"/>
<path d="M34.6657 6.17192C35.7665 9.81213 37.0438 11.0467 40.6295 12.1357C37.0626 13.2614 35.7511 14.5617 34.6657 18.0995C33.6117 14.4746 32.2761 13.1792 28.7019 12.1357C32.2504 11.0914 33.5725 9.80721 34.6657 6.17192Z" fill="#97A7B4" stroke="#97A7B4" stroke-width="2.08" stroke-linejoin="round"/>
</svg>
