<svg width="51" height="47" viewBox="0 0 51 47" fill="none" xmlns="http://www.w3.org/2000/svg">
<path d="M42.5067 13.9521C42.5067 12.8033 41.5754 11.8721 40.4267 11.8721H8.83127C7.68252 11.8721 6.75127 12.8033 6.75127 13.9521V35.8958C6.75127 37.0445 7.68252 37.9758 8.83127 37.9758H15.5343L13.5803 43.6235C13.2467 44.5877 14.3564 45.4057 15.1787 44.8017L24.4731 37.9758H40.4267C41.5754 37.9758 42.5067 37.0445 42.5067 35.8958V13.9521Z" fill="#97A7B4"/>
<path d="M9.94318 9.75187C9.94318 8.60312 10.8744 7.67188 12.0232 7.67188H43.6186C44.7673 7.67188 45.6986 8.60312 45.6986 9.75187V31.6956C45.6986 32.8443 44.7673 33.7756 43.6186 33.7756H36.9155L38.8695 39.4233C39.2031 40.3875 38.0934 41.2055 37.2711 40.6015L27.9767 33.7756H12.0232C10.8744 33.7756 9.94318 32.8443 9.94318 31.6956V9.75187Z" fill="#D8DEE9"/>
<path d="M43.0231 19.5123L41.7332 20.347C41.3098 20.621 40.7526 20.562 40.396 20.2054L35.7143 15.5238C35.3577 15.1672 35.2987 14.6099 35.5727 14.1866L36.4074 12.8967C36.8643 12.1906 36.865 11.2823 36.4092 10.5756L33.713 6.39438C32.8175 5.0056 30.8704 4.7629 29.9854 6.15842C29.15 7.47571 28.4722 9.12392 28.4525 10.952C28.4152 14.4268 30.2086 17.2663 31.4788 18.5366L37.3832 24.4409C38.6534 25.7111 41.493 27.5045 44.9677 27.4672C46.7958 27.4475 48.444 26.7698 49.7613 25.9344C51.1568 25.0494 50.9141 23.1022 49.5254 22.2067L45.3442 19.5105C44.6374 19.0547 43.7291 19.0554 43.0231 19.5123Z" fill="#4EEBC2"/>
<path d="M17.0892 1.63086C17.7525 3.82422 18.5221 4.56812 20.6826 5.22428C18.5334 5.90256 17.7432 6.68602 17.0892 8.8177C16.4541 6.63352 15.6494 5.85303 13.4958 5.22428C15.6339 4.59504 16.4305 3.82126 17.0892 1.63086Z" fill="#38424A" stroke="#38424A" stroke-width="2.08" stroke-linejoin="round"/>
<path d="M8.6807 6.76282C9.94793 10.9533 11.4183 12.3746 15.5461 13.6282C11.4399 14.9241 9.93021 16.4209 8.6807 20.4936C7.46734 16.3206 5.92985 14.8295 1.81531 13.6282C5.90027 12.426 7.42223 10.9477 8.6807 6.76282Z" fill="#38424A" stroke="#38424A" stroke-width="2.08" stroke-linejoin="round"/>
</svg>
