<svg width="24" height="24" viewBox="0 0 24 24" fill="none" xmlns="http://www.w3.org/2000/svg">
<path d="M20.9895 16.5971C20.829 17.8167 20.2301 18.9361 19.3046 19.7463C18.3791 20.5566 17.1903 21.0022 15.9602 21C8.81411 21 3.00001 15.1859 3.00001 8.03987C2.9978 6.80982 3.44343 5.62102 4.25367 4.69552C5.06391 3.77002 6.18334 3.1711 7.40288 3.01062C7.71128 2.97296 8.02358 3.03605 8.29317 3.19047C8.56276 3.34489 8.77517 3.58236 8.89871 3.86743L10.7995 8.11097V8.12177C10.8941 8.33998 10.9332 8.57822 10.9132 8.8152C10.8933 9.05219 10.815 9.28055 10.6852 9.47988C10.669 9.50418 10.6519 9.52668 10.6339 9.54918L8.76011 11.7704C9.43422 13.1402 10.867 14.5604 12.2549 15.2363L14.4455 13.3724C14.467 13.3543 14.4896 13.3375 14.513 13.322C14.7122 13.1892 14.9413 13.1081 15.1797 13.0861C15.4181 13.0641 15.6582 13.1019 15.8783 13.196L15.89 13.2014L20.13 15.1013C20.4156 15.2244 20.6536 15.4367 20.8086 15.7063C20.9635 15.9759 21.027 16.2884 20.9895 16.5971Z" fill="#23252B"/>
</svg>
