<svg width="24" height="24" viewBox="0 0 24 24" fill="none" xmlns="http://www.w3.org/2000/svg">
<path fill-rule="evenodd" clip-rule="evenodd" d="M10.2727 8.39118C10.6842 8.19391 11 7.80714 11 7.35086L11 4.1715C11 3.57571 10.4797 3.10771 9.9002 3.2462C5.94246 4.19209 3 7.75239 3 11.9999C3 16.9705 7.02944 20.9999 12 20.9999C16.2476 20.9999 19.8079 18.0575 20.7537 14.0997C20.8922 13.5203 20.4242 12.9999 19.8284 12.9999H16.6492C16.193 12.9999 15.8062 13.3158 15.6089 13.7272C14.9643 15.0717 13.5906 16.0001 12 16.0001C9.79086 16.0001 8 14.2092 8 12.0001C8 10.4095 8.92833 9.0358 10.2727 8.39118ZM16.6491 10.9999C16.1929 10.9999 15.8061 10.6841 15.6088 10.2727C15.2149 9.45121 14.5488 8.78506 13.7272 8.39116C13.3158 8.19389 13 7.80714 13 7.35086L13 4.1715C13 3.57571 13.5202 3.10768 14.0996 3.24616C17.3838 4.031 19.9689 6.61611 20.7538 9.90031C20.8923 10.4798 20.4242 10.9999 19.8284 10.9999L16.6491 10.9999Z" fill="#23252B"/>
</svg>
