<svg width="24" height="24" viewBox="0 0 24 24" fill="none" xmlns="http://www.w3.org/2000/svg">
<path fill-rule="evenodd" clip-rule="evenodd" d="M12 24C18.6274 24 24 18.6274 24 12C24 5.37258 18.6274 0 12 0C5.37258 0 0 5.37258 0 12C0 18.6274 5.37258 24 12 24ZM17.3738 9.37377C17.7643 8.98325 17.7643 8.35008 17.3738 7.95956C16.9832 7.56904 16.3501 7.56904 15.9596 7.95956L10.623 13.2961L7.99396 10.9826C7.57935 10.6178 6.94747 10.6581 6.58262 11.0727C6.21776 11.4873 6.2581 12.1192 6.67271 12.484L10.006 15.4174C10.4021 15.7659 11.0007 15.7468 11.3738 15.3738L17.3738 9.37377Z" fill="#13B992"/>
</svg>
