<svg width="24" height="24" viewBox="0 0 24 24" fill="none" xmlns="http://www.w3.org/2000/svg">
<path fill-rule="evenodd" clip-rule="evenodd" d="M4 4C2.89543 4 2 4.89543 2 6V18.5C2 19.6046 2.89543 20.5 4 20.5H19.8C20.9046 20.5 21.8 19.6046 21.8 18.5V6C21.8 4.89543 20.9046 4 19.8 4H4ZM6.43817 7.59126C5.99152 7.26643 5.3661 7.36518 5.04126 7.81183C4.71643 8.25848 4.81518 8.8839 5.26183 9.20874L10.1355 12.7532C11.1874 13.5183 12.6126 13.5183 13.6645 12.7532L18.5382 9.20874C18.9848 8.8839 19.0836 8.25848 18.7587 7.81183C18.4339 7.36518 17.8085 7.26643 17.3618 7.59126L12.4882 11.1357C12.1375 11.3908 11.6625 11.3908 11.3118 11.1357L6.43817 7.59126Z" fill="#23252B"/>
</svg>
