<svg width="52" height="52" viewBox="0 0 52 52" fill="none" xmlns="http://www.w3.org/2000/svg">
<rect width="52" height="52" fill="white"/>
<path d="M46.5204 44.3208C46.8275 45.667 45.6809 46.8004 44.3002 46.8004H7.7002C6.31949 46.8004 5.17287 45.667 5.48 44.3208C7.11109 37.1717 15.6775 31.7197 26.0002 31.7197C36.3229 31.7197 44.8893 37.1717 46.5204 44.3208Z" fill="#97A7B4"/>
<path fill-rule="evenodd" clip-rule="evenodd" d="M11.8873 35.7223L13.6717 37.51C15.1689 39.0098 16.0098 41.0425 16.0098 43.1617V46.8004H35.9041V43.1617C35.9041 41.0425 36.745 39.0098 38.2422 37.51L40.0614 35.6875C39.0298 35.001 37.9023 34.389 36.6952 33.8633C33.83 36.1599 30.09 37.5499 25.9986 37.5499C21.9077 37.5499 18.1683 36.1603 15.3033 33.8643C14.0767 34.3987 12.9323 35.0221 11.8873 35.7223Z" fill="#4EEBC2"/>
<path d="M36.4045 22.4683C36.4045 28.2261 31.7461 32.8937 25.9996 32.8937C20.2532 32.8937 15.5947 28.2261 15.5947 22.4683V12.043H36.4045V22.4683Z" fill="#D8DEE9"/>
<path d="M15.0461 16.1872C15.0461 10.1369 19.9508 5.2002 26.0012 5.2002C32.0515 5.2002 36.9563 10.1369 36.9563 16.1872C36.9563 16.693 36.5462 17.1057 36.0405 17.1057H15.9619C15.4561 17.1057 15.0461 16.693 15.0461 16.1872Z" fill="#4EEBC2"/>
<path d="M36.9248 15.9021C37.1085 16.5539 36.4609 17.1054 35.6819 17.1054H16.3204C15.5414 17.1054 14.8938 16.5539 15.0775 15.9021C15.9913 12.6588 20.5344 10.1943 26.0012 10.1943C31.4679 10.1943 36.011 12.6588 36.9248 15.9021Z" fill="#38424A"/>
</svg>
