<svg width="24" height="24" viewBox="0 0 24 24" fill="none" xmlns="http://www.w3.org/2000/svg">
<path fill-rule="evenodd" clip-rule="evenodd" d="M4.82184 3C4.26955 3 3.82184 3.44771 3.82184 4V18.3205C3.82184 18.8728 4.26955 19.3205 4.82184 19.3205H10.4315L10.4316 19.3171L10.4857 16.336C10.4928 15.9477 10.6502 15.5772 10.9248 15.3025L15.9317 10.296C16.1544 10.0732 16.3989 9.88556 16.6584 9.73292V6C16.6584 4.34315 15.3152 3 13.6584 3H4.82184ZM16.6584 11.6906L11.9855 16.3632L11.9586 17.8445L11.9318 19.3205H15.0384L16.6584 17.7006V11.6906ZM6.03393 6.68518C6.03393 6.27097 6.36972 5.93518 6.78393 5.93518H11.9082C12.3225 5.93518 12.6582 6.27097 12.6582 6.68518C12.6582 7.0994 12.3225 7.43518 11.9082 7.43518H6.78393C6.36972 7.43518 6.03393 7.0994 6.03393 6.68518ZM6.78393 9.10399C6.36972 9.10399 6.03393 9.43978 6.03393 9.85399C6.03393 10.2682 6.36972 10.604 6.78393 10.604H9.34609C9.7603 10.604 10.0961 10.2682 10.0961 9.85399C10.0961 9.43978 9.7603 9.10399 9.34609 9.10399H6.78393Z" fill="#22252A"/>
<path d="M16.9923 11.3567C17.8222 10.5269 19.1676 10.5269 19.9974 11.3567C20.8272 12.1866 20.8272 13.532 19.9973 14.3619L14.9906 19.3684L11.9313 19.3443L11.9854 16.3632L16.9923 11.3567Z" fill="#22252A"/>
</svg>
