<svg width="18" height="18" viewBox="0 0 18 18" fill="none" xmlns="http://www.w3.org/2000/svg">
<path d="M15.792 5.38537C15.7989 5.54377 15.7989 5.69497 15.7989 5.85337C15.8059 10.6558 12.2775 16.1998 5.82509 16.1998C3.922 16.1998 2.05365 15.631 0.449219 14.5654C0.727042 14.6014 1.00486 14.6158 1.28269 14.6158C2.85933 14.6158 4.3943 14.0686 5.63756 13.0534C4.13732 13.0246 2.81766 12.0094 2.35925 10.5262C2.88711 10.6342 3.42887 10.6126 3.94284 10.4614C2.31063 10.1302 1.13683 8.63978 1.12988 6.90458C1.12988 6.89018 1.12988 6.87578 1.12988 6.86138C1.61607 7.14218 2.16478 7.30058 2.72042 7.31498C1.18545 6.24937 0.706205 4.12537 1.63691 2.46216C3.42192 4.73737 6.04735 6.11257 8.86725 6.26377C8.58248 5.00377 8.97144 3.67896 9.88131 2.78616C11.2913 1.41096 13.5138 1.48296 14.8474 2.94456C15.6322 2.78616 16.3893 2.48376 17.0769 2.05896C16.813 2.90136 16.2643 3.61416 15.535 4.06777C16.2296 3.98137 16.9102 3.78697 17.5492 3.49896C17.0769 4.23337 16.4796 4.86697 15.792 5.38537Z" fill="#23252B"/>
</svg>
