<svg width="24" height="24" viewBox="0 0 24 24" fill="none" xmlns="http://www.w3.org/2000/svg">
<path fill-rule="evenodd" clip-rule="evenodd" d="M15.59 10.808C14.5889 11.5566 13.3462 12 12 12C10.6253 12 9.35854 11.5377 8.34679 10.76C5.84116 11.447 4 13.7406 4 16.4643V18.3669C4 20 5.32396 20 6.95714 20H16.8143C16.9307 20 17.0455 20.0007 17.1584 20.0014C18.6294 20.0101 19.7714 20.0168 19.7714 18.5V16.4643C19.7714 13.8009 18.0108 11.5487 15.59 10.808ZM9.50007 15.25H7.50017C7.08596 15.25 6.75007 14.9142 6.75007 14.5C6.75007 14.1026 7.05911 13.7774 7.44996 13.7517C7.46337 13.7508 7.47688 13.7502 7.49048 13.7501L7.50017 13.75H9.50017C9.91438 13.75 10.2502 14.0858 10.2502 14.5C10.2502 14.9142 9.91428 15.25 9.50007 15.25Z" fill="#23252B"/>
<path d="M15.5 6.5C15.5 8.433 13.933 10 12 10C10.067 10 8.5 8.433 8.5 6.5C8.5 4.567 10.067 3 12 3C13.933 3 15.5 4.567 15.5 6.5Z" fill="#23252B"/>
</svg>
